<?xml version="1.0" encoding="UTF-8" standalone="no"?>
<!-- Created with Inkscape (http://www.inkscape.org/) -->

<svg
   width="22.371275mm"
   height="10.481418mm"
   viewBox="0 0 22.371275 10.481418"
   version="1.1"
   id="svg5"
   inkscape:version="1.2.1 (9c6d41e410, 2022-07-14, custom)"
   sodipodi:docname="stars.svg"
   xmlns:inkscape="http://www.inkscape.org/namespaces/inkscape"
   xmlns:sodipodi="http://sodipodi.sourceforge.net/DTD/sodipodi-0.dtd"
   xmlns="http://www.w3.org/2000/svg"
   xmlns:svg="http://www.w3.org/2000/svg">
  <sodipodi:namedview
     id="namedview7"
     pagecolor="#ffffff"
     bordercolor="#666666"
     borderopacity="1.0"
     inkscape:showpageshadow="2"
     inkscape:pageopacity="0.0"
     inkscape:pagecheckerboard="0"
     inkscape:deskcolor="#d1d1d1"
     inkscape:document-units="mm"
     showgrid="false"
     inkscape:zoom="6.6244038"
     inkscape:cx="-1.3586128"
     inkscape:cy="46.117358"
     inkscape:window-width="1920"
     inkscape:window-height="1043"
     inkscape:window-x="1920"
     inkscape:window-y="305"
     inkscape:window-maximized="1"
     inkscape:current-layer="layer1" />
  <defs
     id="defs2" />
  <g
     inkscape:label="Layer 1"
     inkscape:groupmode="layer"
     id="layer1"
     transform="translate(-845.55364,153.58699)">
    <g
       id="g1756"
       transform="matrix(0.01444414,0,0,0.01444414,845.53293,-151.14505)">
      <path
         id="path1694"
         style="fill:#ff0000;stroke-width:31.465;stroke-linecap:round;stroke-linejoin:round;paint-order:stroke fill markers"
         inkscape:transform-center-y="-1.6041766"
         transform="matrix(1.771561,0,0,1.771561,1300.6753,-170.45867)"
         d="m 34.970869,38.729679 11.945199,36.758812 38.650978,0.0015 L 54.298608,98.209614 66.241024,134.96933 34.970867,112.25204 3.7007081,134.96933 15.643126,98.209613 -15.625311,75.489953 23.025667,75.48849 Z" />
      <path
         id="path1676"
         style="fill:#ff0000;stroke-width:31.465;stroke-linecap:round;stroke-linejoin:round;paint-order:stroke fill markers"
         inkscape:transform-center-y="-1.6041766"
         transform="matrix(1.771561,0,0,1.771561,1142.133,-221.9722)"
         d="m 34.970869,38.729679 11.945199,36.758812 38.650978,0.0015 L 54.298608,98.209614 66.241024,134.96933 34.970867,112.25204 3.7007081,134.96933 15.643126,98.209613 -15.625311,75.489953 23.025667,75.48849 Z" />
      <path
         id="path1678"
         style="fill:#ff0000;stroke-width:31.465;stroke-linecap:round;stroke-linejoin:round;paint-order:stroke fill markers"
         inkscape:transform-center-y="-1.6041766"
         transform="matrix(1.771561,0,0,1.771561,983.59064,-170.45868)"
         d="m 34.970869,38.729679 11.945199,36.758812 38.650978,0.0015 L 54.298608,98.209614 66.241024,134.96933 34.970867,112.25204 3.7007081,134.96933 15.643126,98.209613 -15.625311,75.489953 23.025667,75.48849 Z" />
      <path
         id="path1680"
         style="fill:#ff0000;stroke-width:31.465;stroke-linecap:round;stroke-linejoin:round;paint-order:stroke fill markers"
         inkscape:transform-center-y="-1.6041766"
         transform="matrix(1.771561,0,0,1.771561,885.60611,-35.594543)"
         d="m 34.970869,38.729679 11.945199,36.758812 38.650978,0.0015 L 54.298608,98.209614 66.241024,134.96933 34.970867,112.25204 3.7007081,134.96933 15.643126,98.209613 -15.625311,75.489953 23.025667,75.48849 Z" />
      <path
         id="path1682"
         style="fill:#ff0000;stroke-width:31.465;stroke-linecap:round;stroke-linejoin:round;paint-order:stroke fill markers"
         inkscape:transform-center-y="-1.6041766"
         transform="matrix(1.771561,0,0,1.771561,885.60611,131.1067)"
         d="m 34.970869,38.729679 11.945199,36.758812 38.650978,0.0015 L 54.298608,98.209614 66.241024,134.96933 34.970867,112.25204 3.7007081,134.96933 15.643126,98.209613 -15.625311,75.489953 23.025667,75.48849 Z" />
      <path
         id="path1684"
         style="fill:#ff0000;stroke-width:31.465;stroke-linecap:round;stroke-linejoin:round;paint-order:stroke fill markers"
         inkscape:transform-center-y="-1.6041766"
         transform="matrix(1.771561,0,0,1.771561,983.59063,265.97084)"
         d="m 34.970869,38.729679 11.945199,36.758812 38.650978,0.0015 L 54.298608,98.209614 66.241024,134.96933 34.970867,112.25204 3.7007081,134.96933 15.643126,98.209613 -15.625311,75.489953 23.025667,75.48849 Z" />
      <path
         id="path1686"
         style="fill:#ff0000;stroke-width:31.465;stroke-linecap:round;stroke-linejoin:round;paint-order:stroke fill markers"
         inkscape:transform-center-y="-1.6041766"
         transform="matrix(1.771561,0,0,1.771561,1142.133,317.48436)"
         d="m 34.970869,38.729679 11.945199,36.758812 38.650978,0.0015 L 54.298608,98.209614 66.241024,134.96933 34.970867,112.25204 3.7007081,134.96933 15.643126,98.209613 -15.625311,75.489953 23.025667,75.48849 Z" />
      <path
         id="path1688"
         style="fill:#ff0000;stroke-width:31.465;stroke-linecap:round;stroke-linejoin:round;paint-order:stroke fill markers"
         inkscape:transform-center-y="-1.6041766"
         transform="matrix(1.771561,0,0,1.771561,1300.6753,265.97085)"
         d="m 34.970869,38.729679 11.945199,36.758812 38.650978,0.0015 L 54.298608,98.209614 66.241024,134.96933 34.970867,112.25204 3.7007081,134.96933 15.643126,98.209613 -15.625311,75.489953 23.025667,75.48849 Z" />
      <path
         id="path1690"
         style="fill:#ff0000;stroke-width:31.465;stroke-linecap:round;stroke-linejoin:round;paint-order:stroke fill markers"
         inkscape:transform-center-y="-1.6041766"
         transform="matrix(1.771561,0,0,1.771561,1398.6598,131.10671)"
         d="m 34.970869,38.729679 11.945199,36.758812 38.650978,0.0015 L 54.298608,98.209614 66.241024,134.96933 34.970867,112.25204 3.7007081,134.96933 15.643126,98.209613 -15.625311,75.489953 23.025667,75.48849 Z" />
      <path
         id="path1692"
         style="fill:#ff0000;stroke-width:31.465;stroke-linecap:round;stroke-linejoin:round;paint-order:stroke fill markers"
         inkscape:transform-center-y="-1.6041766"
         transform="matrix(1.771561,0,0,1.771561,1398.6598,-32.118561)"
         d="m 34.970869,38.729679 11.945199,36.758812 38.650978,0.0015 L 54.298608,98.209614 66.241024,134.96933 34.970867,112.25204 3.7007081,134.96933 15.643126,98.209613 -15.625311,75.489953 23.025667,75.48849 Z" />
    </g>
    <g
       id="g1768"
       transform="matrix(0.01444414,0,0,0.01444414,846.14937,-151.9071)">
      <path
         sodipodi:type="star"
         style="fill:#ff0000;stroke:none;stroke-width:31.465;stroke-linecap:round;stroke-linejoin:round;paint-order:stroke fill markers"
         id="path900"
         inkscape:flatsided="false"
         sodipodi:sides="5"
         sodipodi:cx="34.970867"
         sodipodi:cy="91.929649"
         sodipodi:r1="53.19997"
         sodipodi:r2="20.32239"
         sodipodi:arg1="-1.5707963"
         sodipodi:arg2="-0.94247777"
         inkscape:rounded="0"
         inkscape:randomized="0"
         d="m 34.970869,38.729679 11.945199,36.758812 38.650978,0.0015 L 54.298608,98.209614 66.241024,134.96933 34.970867,112.25204 3.7007081,134.96933 15.643126,98.209613 -15.625311,75.489953 23.025667,75.48849 Z"
         inkscape:transform-center-y="-1.6041766"
         transform="matrix(1.771561,0,0,1.771561,242.96435,-184.91469)" />
      <path
         sodipodi:type="star"
         style="fill:#ff0000;stroke:none;stroke-width:31.465;stroke-linecap:round;stroke-linejoin:round;paint-order:stroke fill markers"
         id="path902"
         inkscape:flatsided="false"
         sodipodi:sides="5"
         sodipodi:cx="34.970867"
         sodipodi:cy="91.929649"
         sodipodi:r1="53.19997"
         sodipodi:r2="20.32239"
         sodipodi:arg1="-1.5707963"
         sodipodi:arg2="-0.94247777"
         inkscape:rounded="0"
         inkscape:randomized="0"
         d="m 34.970869,38.729679 11.945199,36.758812 38.650978,0.0015 L 54.298608,98.209614 66.241024,134.96933 34.970867,112.25204 3.7007081,134.96933 15.643126,98.209613 -15.625311,75.489953 23.025667,75.48849 Z"
         inkscape:transform-center-y="-1.6041766"
         transform="matrix(1.771561,0,0,1.771561,84.422025,-133.40117)" />
      <path
         sodipodi:type="star"
         style="fill:#ff0000;stroke:none;stroke-width:31.465;stroke-linecap:round;stroke-linejoin:round;paint-order:stroke fill markers"
         id="path904"
         inkscape:flatsided="false"
         sodipodi:sides="5"
         sodipodi:cx="34.970867"
         sodipodi:cy="91.929649"
         sodipodi:r1="53.19997"
         sodipodi:r2="20.32239"
         sodipodi:arg1="-1.5707963"
         sodipodi:arg2="-0.94247777"
         inkscape:rounded="0"
         inkscape:randomized="0"
         d="m 34.970869,38.729679 11.945199,36.758812 38.650978,0.0015 L 54.298608,98.209614 66.241024,134.96933 34.970867,112.25204 3.7007081,134.96933 15.643126,98.209613 -15.625311,75.489953 23.025667,75.48849 Z"
         inkscape:transform-center-y="-1.6041766"
         transform="matrix(1.771561,0,0,1.771561,-13.562502,1.4629704)" />
      <path
         sodipodi:type="star"
         style="fill:#ff0000;stroke:none;stroke-width:31.465;stroke-linecap:round;stroke-linejoin:round;paint-order:stroke fill markers"
         id="path906"
         inkscape:flatsided="false"
         sodipodi:sides="5"
         sodipodi:cx="34.970867"
         sodipodi:cy="91.929649"
         sodipodi:r1="53.19997"
         sodipodi:r2="20.32239"
         sodipodi:arg1="-1.5707963"
         sodipodi:arg2="-0.94247777"
         inkscape:rounded="0"
         inkscape:randomized="0"
         d="m 34.970869,38.729679 11.945199,36.758812 38.650978,0.0015 L 54.298608,98.209614 66.241024,134.96933 34.970867,112.25204 3.7007081,134.96933 15.643126,98.209613 -15.625311,75.489953 23.025667,75.48849 Z"
         inkscape:transform-center-y="-1.6041766"
         transform="matrix(1.771561,0,0,1.771561,-13.562507,168.16421)" />
      <path
         sodipodi:type="star"
         style="fill:#ff0000;stroke:none;stroke-width:31.465;stroke-linecap:round;stroke-linejoin:round;paint-order:stroke fill markers"
         id="path908"
         inkscape:flatsided="false"
         sodipodi:sides="5"
         sodipodi:cx="34.970867"
         sodipodi:cy="91.929649"
         sodipodi:r1="53.19997"
         sodipodi:r2="20.32239"
         sodipodi:arg1="-1.5707963"
         sodipodi:arg2="-0.94247777"
         inkscape:rounded="0"
         inkscape:randomized="0"
         d="m 34.970869,38.729679 11.945199,36.758812 38.650978,0.0015 L 54.298608,98.209614 66.241024,134.96933 34.970867,112.25204 3.7007081,134.96933 15.643126,98.209613 -15.625311,75.489953 23.025667,75.48849 Z"
         inkscape:transform-center-y="-1.6041766"
         transform="matrix(1.771561,0,0,1.771561,84.422015,303.02835)" />
      <path
         sodipodi:type="star"
         style="fill:#ff0000;stroke:none;stroke-width:31.465;stroke-linecap:round;stroke-linejoin:round;paint-order:stroke fill markers"
         id="path910"
         inkscape:flatsided="false"
         sodipodi:sides="5"
         sodipodi:cx="34.970867"
         sodipodi:cy="91.929649"
         sodipodi:r1="53.19997"
         sodipodi:r2="20.32239"
         sodipodi:arg1="-1.5707963"
         sodipodi:arg2="-0.94247777"
         inkscape:rounded="0"
         inkscape:randomized="0"
         d="m 34.970869,38.729679 11.945199,36.758812 38.650978,0.0015 L 54.298608,98.209614 66.241024,134.96933 34.970867,112.25204 3.7007081,134.96933 15.643126,98.209613 -15.625311,75.489953 23.025667,75.48849 Z"
         inkscape:transform-center-y="-1.6041766"
         transform="matrix(1.771561,0,0,1.771561,242.96434,354.54187)" />
      <path
         sodipodi:type="star"
         style="fill:#ff0000;stroke:none;stroke-width:31.465;stroke-linecap:round;stroke-linejoin:round;paint-order:stroke fill markers"
         id="path912"
         inkscape:flatsided="false"
         sodipodi:sides="5"
         sodipodi:cx="34.970867"
         sodipodi:cy="91.929649"
         sodipodi:r1="53.19997"
         sodipodi:r2="20.32239"
         sodipodi:arg1="-1.5707963"
         sodipodi:arg2="-0.94247777"
         inkscape:rounded="0"
         inkscape:randomized="0"
         d="m 34.970869,38.729679 11.945199,36.758812 38.650978,0.0015 L 54.298608,98.209614 66.241024,134.96933 34.970867,112.25204 3.7007081,134.96933 15.643126,98.209613 -15.625311,75.489953 23.025667,75.48849 Z"
         inkscape:transform-center-y="-1.6041766"
         transform="matrix(1.771561,0,0,1.771561,401.50664,303.02836)" />
      <path
         sodipodi:type="star"
         style="fill:#ff0000;stroke:none;stroke-width:31.465;stroke-linecap:round;stroke-linejoin:round;paint-order:stroke fill markers"
         id="path914"
         inkscape:flatsided="false"
         sodipodi:sides="5"
         sodipodi:cx="34.970867"
         sodipodi:cy="91.929649"
         sodipodi:r1="53.19997"
         sodipodi:r2="20.32239"
         sodipodi:arg1="-1.5707963"
         sodipodi:arg2="-0.94247777"
         inkscape:rounded="0"
         inkscape:randomized="0"
         d="m 34.970869,38.729679 11.945199,36.758812 38.650978,0.0015 L 54.298608,98.209614 66.241024,134.96933 34.970867,112.25204 3.7007081,134.96933 15.643126,98.209613 -15.625311,75.489953 23.025667,75.48849 Z"
         inkscape:transform-center-y="-1.6041766"
         transform="matrix(1.771561,0,0,1.771561,499.49118,168.16422)" />
      <path
         sodipodi:type="star"
         style="fill:#ff0000;stroke:none;stroke-width:31.465;stroke-linecap:round;stroke-linejoin:round;paint-order:stroke fill markers"
         id="path916"
         inkscape:flatsided="false"
         sodipodi:sides="5"
         sodipodi:cx="34.970867"
         sodipodi:cy="91.929649"
         sodipodi:r1="53.19997"
         sodipodi:r2="20.32239"
         sodipodi:arg1="-1.5707963"
         sodipodi:arg2="-0.94247777"
         inkscape:rounded="0"
         inkscape:randomized="0"
         d="m 34.970869,38.729679 11.945199,36.758812 38.650978,0.0015 L 54.298608,98.209614 66.241024,134.96933 34.970867,112.25204 3.7007081,134.96933 15.643126,98.209613 -15.625311,75.489953 23.025667,75.48849 Z"
         inkscape:transform-center-y="-1.6041766"
         transform="matrix(1.771561,0,0,1.771561,499.49118,4.9389524)" />
      <path
         sodipodi:type="star"
         style="fill:#ff0000;stroke:none;stroke-width:31.465;stroke-linecap:round;stroke-linejoin:round;paint-order:stroke fill markers"
         id="path918"
         inkscape:flatsided="false"
         sodipodi:sides="5"
         sodipodi:cx="34.970867"
         sodipodi:cy="91.929649"
         sodipodi:r1="53.19997"
         sodipodi:r2="20.32239"
         sodipodi:arg1="-1.5707963"
         sodipodi:arg2="-0.94247777"
         inkscape:rounded="0"
         inkscape:randomized="0"
         d="m 34.970869,38.729679 11.945199,36.758812 38.650978,0.0015 L 54.298608,98.209614 66.241024,134.96933 34.970867,112.25204 3.7007081,134.96933 15.643126,98.209613 -15.625311,75.489953 23.025667,75.48849 Z"
         inkscape:transform-center-y="-1.6041766"
         transform="matrix(1.771561,0,0,1.771561,401.50665,-133.40116)" />
    </g>
  </g>
</svg>
